#!OML:ASF H:\Terrain\Patient Classification 1\Walking\steve\steve.ASF
:FULLY-SPECIFIED
:DEGREES
251
root 7.80681 15.7142 22.4424 10.2318 -10.6002 -2.5684
lowerback -3.65305 7.76522 -1.13071
upperback -4.59161 10.3296 -2.87471
thorax -2.38128 5.16047 -2.15242
lowerneck -12.2444 -3.12525 -2.95807
upperneck 12.2735 -4.5015 5.52859
head 5.92058 -1.90688 1.8384
rclavicle -9.14285e-014 -2.14687e-014
rhumerus 5.70977 0.760104 -75.768
rradius 48.6298
rwrist -21.3116
rhand -25.2333 -39.4638
rfingers 7.12502
rthumb 1.28626 -69.4397
lclavicle -9.14285e-014 -2.14687e-014
lhumerus -82.062 14.7427 -3.98134
lradius 12.273
lwrist -31.8134
lhand -19.8845 -6.03678
lfingers 7.12502
lthumb 6.45128 23.845
rfemur 12.3279 9.63639 21.9682
rtibia 35.7179
rfoot 23.5755 -0.181761
rtoes 9.26125
lfemur -51.4942 6.93232 -19.7199
ltibia 45.432
lfoot -6.024 3.14896
ltoes 3.32696
252
root 7.82598 15.7409 22.6852 9.90098 -10.8354 -2.10271
lowerback -3.44094 7.82045 -1.34049
upperback -4.3971 10.4016 -3.14373
thorax -2.28234 5.19831 -2.3239
lowerneck -12.4775 -3.15812 -3.21707
upperneck 12.3502 -4.53621 5.78519
head 5.9981 -1.91124 1.95603
rclavicle 1.84373e-014 -1.43125e-014
rhumerus 4.46639 1.1123 -76.1435
rradius 49.2257
rwrist -21.9561
rhand -30.6969 -34.3524
rfingers 7.12502
rthumb -3.99041 -64.2948
lclavicle 1.84373e-014 -1.43125e-014
lhumerus -81.5952 16.3776 -3.09995
lradius 12.1576
lwrist -32.594
lhand -20.0699 -6.32877
lfingers 7.12502
lthumb 6.27236 23.5584
rfemur 11.0464 9.61398 21.3907
rtibia 38.727
rfoot 24.9945 -2.85397
rtoes 10.1219
lfemur -50.4783 7.10072 -20.4788
ltibia 45.9843
lfoot -7.13304 2.61574
ltoes 3.84056
253
root 7.8499 15.8141 22.9333 9.44881 -11.2568 -1.32708
lowerback -3.18343 7.87091 -1.99239
upperback -4.13601 10.4721 -3.38075
thorax -2.2246 5.24532 -2.23634
lowerneck -12.8636 -3.18142 -3.31845
upperneck 12.4971 -4.55051 5.80092
head 6.1136 -1.91301 1.97166
rclavicle -1.5048e-013 2.06736e-014
rhumerus 3.43361 1.79394 -76.3616
rradius 49.5456
rwrist -22.5436
rhand -33.2581 -31.5686
rfingers 7.12502
rthumb -6.4634 -61.45
lclavicle -1.5048e-013 2.06736e-014
lhumerus -81.0159 17.9433 -1.40325
lradius 12.0307
lwrist -32.8629
lhand -20.3614 -6.7565
lfingers 7.12502
lthumb 5.99087 23.1388
rfemur 9.18464 9.37518 20.4072
rtibia 41.8371
rfoot 26.2469 -1.37679
rtoes -6.89276
lfemur -48.9267 7.25916 -21.5252
ltibia 46.0618
lfoot -8.402 2.25256
ltoes 4.34322
254
root 7.8778 15.9101 23.1729 9.17291 -11.4982 -0.875178
lowerback -2.71552 7.83102 -2.38137
upperback -4.12078 10.403 -3.46321
thorax -2.52378 5.2175 -2.18987
lowerneck -12.6344 -3.07795 -3.1768
upperneck 12.353 -4.3789 5.43506
head 6.0088 -1.85749 1.85095
rclavicle 1.96996e-013 -1.11319e-014
rhumerus 1.82849 2.53077 -76.7444
rradius 49.9872
rwrist -22.6717
rhand -33.5588 -30.3091
rfingers 7.12502
rthumb -6.75365 -60.1814
lclavicle 1.96996e-013 -1.11319e-014
lhumerus -80.1463 18.8649 1.56541
lradius 11.8232
lwrist -31.9099
lhand -21.1869 -8.13103
lfingers 7.12502
lthumb 5.19394 21.7853
rfemur 7.07319 9.10204 19.7595
rtibia 44.9005
rfoot 25.6908 0.376023
rtoes -25.0014
lfemur -47.4271 7.38158 -22.2356
ltibia 45.9177
lfoot -9.51686 1.80781
ltoes 4.49299
255
root 7.89858 15.9458 23.3801 9.08953 -11.6131 -0.903291
lowerback -2.37793 7.7238 -2.27595
upperback -4.07448 10.2485 -3.42352
thorax -2.65426 5.13722 -2.25215
lowerneck -12.4572 -2.70228 -2.68523
upperneck 12.2192 -3.85472 4.7456
head 5.88884 -1.6373 1.60209
rclavicle -2.99668e-014 -4.37326e-014
rhumerus 0.411748 3.20289 -77.3476
rradius 50.2997
rwrist -22.69
rhand -32.4268 -30.3569
rfingers 7.12502
rthumb -5.66081 -60.2613
lclavicle -2.99668e-014 -4.37326e-014
lhumerus -79.4716 20.2371 3.88833
lradius 11.6358
lwrist -31.6247
lhand -22.1056 -9.00597
lfingers 7.12502
lthumb 4.30678 20.9302
rfemur 5.41944 9.12365 19.7071
rtibia 47.8052
rfoot 23.1839 -1.80642
rtoes -20.9757
lfemur -46.3819 7.55682 -22.4292
ltibia 45.8114
lfoot -10.1989 1.45147
ltoes 4.60499
256
root 7.91329 15.9447 23.565 9.04431 -11.5879 -0.956902
lowerback -2.10016 7.59093 -2.16832
upperback -3.95998 10.0656 -3.35064
thorax -2.68735 5.0433 -2.26542
lowerneck -12.8531 -2.34388 -2.34788
upperneck 12.5745 -3.36926 4.27882
head 6.03508 -1.41234 1.43919
rclavicle 1.76769e-013 -1.66979e-014
rhumerus -0.810524 3.47632 -78.0606
rradius 50.3621
rwrist -22.5835
rhand -30.3305 -32.0841
rfingers 7.12502
rthumb -3.63661 -62.0328
lclavicle 1.76769e-013 -1.66979e-014
lhumerus -78.816 22.0419 5.92152
lradius 11.6513
lwrist -31.7898
lhand -22.4752 -8.8038
lfingers 7.12502
lthumb 3.94989 21.1393
rfemur 3.99599 9.15312 19.8113
rtibia 50.5305
rfoot 19.3714 -4.76442
rtoes -9.22393
lfemur -45.6134 7.54499 -22.5356
ltibia 45.8459
lfoot -10.8385 1.245
ltoes 4.88125
257
root 7.92663 15.9753 23.7705 8.86206 -11.4996 -0.628877
lowerback -2.15613 7.42062 -2.47562
upperback -3.70263 9.84989 -3.28467
thorax -2.4568 4.94285 -2.0062
lowerneck -12.6407 -2.50771 -2.87631
upperneck 12.4279 -3.52076 4.48573
head 5.97086 -1.49949 1.57919
rclavicle -1.09406e-013 3.97569e-015
rhumerus -2.14116 3.47945 -78.8838
rradius 50.401
rwrist -22.1065
rhand -27.434 -35.2607
rfingers 7.12502
rthumb -0.839294 -65.2388
lclavicle -1.09406e-013 3.97569e-015
lhumerus -77.9622 23.8388 8.48916
lradius 11.7542
lwrist -31.4822
lhand -22.7434 -8.86523
lfingers 7.12502
lthumb 3.69094 21.0826
rfemur 2.48389 9.03738 19.5251
rtibia 53.1075
rfoot 15.4832 -5.85974
rtoes 1.40758
lfemur -44.607 7.34179 -22.9948
ltibia 45.9081
lfoot -11.6978 1.10104
ltoes 4.67094
